<?xml version="1.0" standalone="no"?><svg xmlns="http://www.w3.org/2000/svg" viewBox="0 0 1440 320"><path fill="#F0F1F2" fill-opacity="1" d="M0,128L34.3,144C68.6,160,137,192,206,208C274.3,224,343,224,411,208C480,192,549,160,617,176C685.7,192,754,256,823,256C891.4,256,960,192,1029,149.3C1097.1,107,1166,85,1234,80C1302.9,75,1371,85,1406,90.7L1440,96L1440,320L1405.7,320C1371.4,320,1303,320,1234,320C1165.7,320,1097,320,1029,320C960,320,891,320,823,320C754.3,320,686,320,617,320C548.6,320,480,320,411,320C342.9,320,274,320,206,320C137.1,320,69,320,34,320L0,320Z"></path></svg>