<?xml version="1.0" standalone="no"?>
<!DOCTYPE svg PUBLIC "-//W3C//DTD SVG 20010904//EN"
 "http://www.w3.org/TR/2001/REC-SVG-20010904/DTD/svg10.dtd">
<svg version="1.0" xmlns="http://www.w3.org/2000/svg"
 width="512.000000pt" height="512.000000pt" viewBox="0 0 512.000000 512.000000"
 preserveAspectRatio="xMidYMid meet">

<g transform="translate(0.000000,512.000000) scale(0.100000,-0.100000)"
fill="#000000" stroke="none">
<path d="M2415 4610 c-729 -54 -1367 -483 -1695 -1139 -142 -285 -212 -580
-212 -906 -1 -337 61 -610 207 -910 410 -846 1351 -1305 2276 -1109 976 206
1665 1092 1626 2089 -12 309 -79 570 -217 845 -162 323 -399 590 -707 797
-107 71 -314 176 -433 218 -256 91 -580 135 -845 115z m470 -229 c288 -53 547
-164 781 -336 110 -80 326 -301 406 -415 174 -246 295 -559 329 -852 18 -160
7 -445 -25 -594 -154 -728 -712 -1286 -1440 -1440 -96 -20 -160 -27 -313 -31
-218 -6 -324 4 -504 48 -312 76 -598 234 -831 458 -179 172 -288 320 -388 526
-309 636 -236 1370 194 1940 77 103 238 264 341 341 273 206 582 331 925 374
118 14 398 4 525 -19z"/>
<path d="M2724 4280 c-39 -15 -76 -79 -116 -193 -21 -62 -38 -120 -38 -129 0
-13 -8 -18 -26 -18 -18 0 -46 18 -90 60 -75 69 -138 96 -159 66 -7 -9 -19 -55
-26 -102 -7 -46 -17 -88 -23 -93 -6 -4 -76 -36 -156 -70 -323 -136 -442 -230
-502 -393 -19 -52 -28 -63 -102 -117 -160 -116 -320 -297 -379 -429 -16 -35
-27 -65 -25 -68 3 -2 42 33 88 77 163 159 336 292 466 357 51 26 62 36 68 62
11 60 65 155 113 203 62 63 140 108 354 206 162 73 266 111 347 125 31 5 33 4
27 -17 -4 -12 -13 -32 -21 -44 -14 -22 -13 -23 11 -23 31 0 73 21 97 47 10 10
29 64 43 119 30 114 68 199 97 215 30 16 64 3 110 -44 124 -126 217 -349 234
-559 8 -89 1 -103 -49 -92 l-29 6 17 -33 c63 -121 221 -207 303 -165 37 19 51
42 54 90 2 20 4 36 6 36 2 0 37 -25 79 -56 96 -71 153 -129 197 -202 34 -57
76 -169 76 -204 0 -35 18 -18 30 30 20 77 24 238 7 317 -22 100 -53 179 -94
232 l-35 46 39 -7 c21 -4 64 -20 96 -36 31 -16 57 -25 57 -21 0 4 -22 34 -48
66 -78 98 -199 187 -363 268 -115 57 -152 80 -176 112 -91 115 -327 321 -420
365 -44 21 -102 25 -139 10z"/>
<path d="M2795 3874 c-30 -32 -55 -105 -55 -160 0 -41 2 -44 68 -90 37 -26 97
-79 135 -117 l67 -70 0 42 c0 60 -27 184 -57 258 -24 59 -103 163 -124 163 -6
0 -21 -12 -34 -26z"/>
<path d="M2405 3687 c65 -30 64 -40 -13 -122 -49 -51 -74 -86 -82 -114 -13
-50 -31 -56 -149 -48 -75 6 -91 4 -119 -13 -57 -35 -101 -17 -88 35 6 23 5 25
-13 16 -32 -18 -61 -62 -61 -93 0 -35 32 -84 60 -93 26 -8 25 -27 -1 -51 -27
-25 -49 -67 -49 -96 0 -24 25 -68 38 -68 4 0 18 18 32 41 32 52 69 73 106 59
37 -15 79 1 132 49 50 46 53 35 12 -46 -46 -91 -127 -157 -245 -199 -32 -11
48 -32 125 -33 75 -1 128 20 146 59 7 14 28 59 48 100 19 42 57 105 84 140 84
112 89 133 31 145 l-33 7 24 20 c14 11 66 41 115 65 113 57 154 87 171 129 33
80 -21 114 -191 121 -100 3 -107 3 -80 -10z m-174 -384 c-26 -49 -118 -112
-142 -97 -14 8 -11 24 4 18 23 -8 40 23 34 61 l-6 35 60 0 c54 0 59 -2 50 -17z"/>
<path d="M2811 3434 c63 -134 73 -180 66 -301 -5 -93 -18 -137 -127 -438 -64
-176 -51 -252 79 -453 99 -155 121 -203 121 -277 l1 -60 34 40 c46 53 82 127
96 198 18 86 0 165 -73 321 -33 72 -63 149 -66 170 l-5 40 49 -41 c59 -49 124
-83 159 -83 31 0 31 2 0 48 -43 63 -65 152 -65 266 -1 258 -34 368 -148 480
-56 55 -130 111 -121 90z"/>
<path d="M2563 3341 c-84 -39 -113 -121 -111 -311 0 -61 -2 -113 -5 -116 -3
-3 -15 0 -28 6 -31 17 -103 7 -144 -21 -19 -13 -54 -50 -76 -82 -49 -69 -80
-87 -152 -87 -70 0 -97 21 -141 109 -19 36 -44 75 -56 86 -31 28 -101 26 -165
-5 l-50 -24 56 -5 c82 -9 95 -24 102 -120 9 -141 68 -212 182 -219 71 -5 138
20 225 82 104 75 149 84 195 39 34 -34 68 -107 90 -188 18 -69 40 -277 32
-305 -11 -41 12 -18 46 48 51 97 71 173 71 272 0 103 -16 171 -61 270 -31 66
-34 81 -28 129 7 69 57 219 89 269 32 51 101 109 137 117 40 9 36 20 -16 45
-64 31 -140 36 -192 11z"/>
<path d="M3985 3308 c3 -15 12 -62 20 -105 56 -286 60 -606 10 -844 -32 -158
-75 -260 -75 -180 0 16 -18 91 -40 167 -51 174 -67 294 -54 391 10 71 10 72
-9 55 -34 -30 -66 -97 -88 -178 -16 -64 -22 -130 -29 -354 -5 -151 -14 -304
-20 -340 -17 -98 -66 -237 -111 -313 -38 -64 -173 -216 -183 -206 -2 2 6 45
19 95 43 164 58 377 35 494 -4 25 -6 47 -4 49 2 3 24 -17 48 -43 l45 -47 10
38 c48 172 33 447 -33 632 -9 24 -14 46 -11 49 2 3 33 -9 69 -27 35 -17 67
-31 71 -31 12 0 -6 142 -26 203 -36 107 -87 168 -226 269 -46 33 -83 64 -83
69 0 5 -4 9 -10 9 -18 0 18 -88 73 -180 54 -89 94 -176 86 -185 -3 -2 -33 5
-68 15 -34 11 -83 20 -108 20 l-45 0 31 -36 c101 -114 194 -418 176 -569 l-7
-52 -50 33 c-44 30 -154 72 -163 62 -2 -2 5 -35 16 -73 25 -85 29 -227 10
-305 -36 -145 -152 -291 -291 -364 -40 -21 -71 -34 -68 -30 62 129 61 124 56
198 -5 80 -24 124 -77 179 -56 60 -104 81 -186 81 -95 0 -164 -35 -248 -124
-72 -76 -120 -160 -158 -280 -26 -80 -29 -85 -60 -92 -69 -14 -190 19 -247 67
-58 49 -63 114 -13 184 17 24 27 28 73 29 98 2 210 57 312 153 83 77 120 145
114 208 -19 193 -218 337 -444 318 -87 -7 -175 -51 -329 -166 -149 -112 -157
-116 -230 -101 -73 15 -128 63 -167 145 -40 85 -37 117 22 230 27 52 53 113
56 135 6 38 5 40 -18 40 -14 0 -47 10 -73 21 -66 29 -131 22 -192 -20 l-46
-33 6 42 c5 36 3 40 -11 28 -23 -19 -80 -111 -88 -142 -5 -20 3 -38 39 -88 25
-35 66 -79 92 -98 36 -27 54 -52 80 -106 81 -177 166 -261 284 -284 39 -7 59
-19 103 -62 30 -30 79 -67 109 -82 l55 -29 13 -66 c6 -36 23 -91 36 -121 13
-30 26 -71 29 -90 10 -59 60 -134 113 -169 70 -46 158 -69 336 -86 87 -8 162
-17 168 -20 5 -4 9 25 9 72 1 205 111 415 238 454 35 10 45 9 79 -7 119 -59
88 -245 -70 -411 -38 -40 -67 -77 -63 -81 4 -4 51 -6 104 -6 109 2 246 31 331
70 30 13 56 22 59 19 18 -18 -78 -231 -162 -360 -25 -38 -41 -71 -36 -73 16
-6 159 37 265 79 206 81 384 198 545 359 226 226 371 496 442 820 19 91 23
134 23 320 0 239 -9 299 -71 495 -34 106 -129 318 -119 263z m-2749 -650 c4
-6 -4 -19 -19 -30 -34 -25 -35 -61 -2 -90 14 -12 25 -30 25 -40 0 -24 -18 -58
-30 -58 -16 0 -85 66 -115 110 -27 40 -28 41 -9 61 42 46 133 75 150 47z m871
-419 c60 -29 70 -51 32 -68 -36 -16 -70 -72 -110 -181 -41 -114 -56 -139 -84
-146 -36 -9 -88 3 -126 29 -43 29 -61 92 -57 196 3 73 4 74 47 112 84 75 212
100 298 58z m-429 -150 c1 -33 6 -79 12 -102 5 -23 8 -43 6 -44 -2 -2 -22 11
-45 27 -53 39 -83 87 -70 112 9 16 76 68 89 68 3 0 6 -27 8 -61z m611 10 c37
-13 42 -47 12 -96 -16 -26 -143 -113 -166 -113 -3 0 -3 17 0 38 13 71 13 72
46 60 54 -19 73 19 45 87 -15 34 -14 35 8 35 13 0 37 -5 55 -11z m-454 -299
c22 -11 52 -20 67 -20 38 0 36 -20 -7 -66 -34 -36 -36 -37 -55 -19 -19 17 -60
125 -47 125 1 0 20 -9 42 -20z"/>
<path d="M1594 2756 c-37 -17 -96 -73 -128 -124 -33 -53 -66 -147 -66 -188 0
-36 0 -35 50 40 80 119 170 185 253 186 47 0 48 17 3 64 -36 39 -61 44 -112
22z"/>
<path d="M1685 2579 c-110 -60 -178 -152 -209 -283 -7 -27 -3 -25 55 28 67 60
166 116 207 116 14 0 36 -13 52 -30 l28 -30 17 26 c39 60 28 136 -24 167 -33
19 -96 22 -126 6z"/>
</g>
</svg>
